<mxfile host="app.diagrams.net" agent="Mozilla/5.0 (X11; Linux x86_64) AppleWebKit/537.36 (KHTML, like Gecko) Chrome/134.0.0.0 Safari/537.36" version="26.1.1">
  <diagram name="Page-1" id="BONr0CI4sZDWU6JM8tjz">
    <mxGraphModel dx="1137" dy="633" grid="1" gridSize="10" guides="1" tooltips="1" connect="1" arrows="1" fold="1" page="1" pageScale="1" pageWidth="850" pageHeight="1100" math="0" shadow="0">
      <root>
        <mxCell id="0" />
        <mxCell id="1" parent="0" />
        <mxCell id="LiwgfZoK0_EGX5SwCAW9-6" value="" style="edgeStyle=orthogonalEdgeStyle;rounded=0;orthogonalLoop=1;jettySize=auto;html=1;" edge="1" parent="1" source="LiwgfZoK0_EGX5SwCAW9-1" target="LiwgfZoK0_EGX5SwCAW9-2">
          <mxGeometry relative="1" as="geometry" />
        </mxCell>
        <mxCell id="LiwgfZoK0_EGX5SwCAW9-1" value="&lt;font style=&quot;font-size: 18px;&quot;&gt;超级块&lt;/font&gt;" style="shape=cube;whiteSpace=wrap;html=1;boundedLbl=1;backgroundOutline=1;darkOpacity=0.05;darkOpacity2=0.1;fillColor=#f8cecc;strokeColor=#b85450;" vertex="1" parent="1">
          <mxGeometry x="290" y="60" width="120" height="80" as="geometry" />
        </mxCell>
        <mxCell id="LiwgfZoK0_EGX5SwCAW9-2" value="&lt;font style=&quot;font-size: 18px;&quot;&gt;副超级块&lt;/font&gt;" style="shape=cube;whiteSpace=wrap;html=1;boundedLbl=1;backgroundOutline=1;darkOpacity=0.05;darkOpacity2=0.1;fillColor=#f5f5f5;strokeColor=#666666;fontColor=#333333;" vertex="1" parent="1">
          <mxGeometry x="110" y="60" width="120" height="80" as="geometry" />
        </mxCell>
        <mxCell id="LiwgfZoK0_EGX5SwCAW9-3" value="文件系统大小" style="text;html=1;align=center;verticalAlign=middle;resizable=0;points=[];autosize=1;strokeColor=none;fillColor=none;fontSize=15;" vertex="1" parent="1">
          <mxGeometry x="435" y="48" width="110" height="30" as="geometry" />
        </mxCell>
        <mxCell id="LiwgfZoK0_EGX5SwCAW9-4" value="" style="shape=curlyBracket;whiteSpace=wrap;html=1;rounded=1;labelPosition=left;verticalLabelPosition=middle;align=right;verticalAlign=middle;" vertex="1" parent="1">
          <mxGeometry x="425" y="40" width="20" height="120" as="geometry" />
        </mxCell>
        <mxCell id="LiwgfZoK0_EGX5SwCAW9-5" value="空闲块数量" style="text;html=1;align=center;verticalAlign=middle;resizable=0;points=[];autosize=1;strokeColor=none;fillColor=none;fontSize=15;" vertex="1" parent="1">
          <mxGeometry x="440" y="90" width="100" height="30" as="geometry" />
        </mxCell>
        <mxCell id="LiwgfZoK0_EGX5SwCAW9-7" value="备份" style="text;html=1;align=center;verticalAlign=middle;resizable=0;points=[];autosize=1;strokeColor=none;fillColor=none;" vertex="1" parent="1">
          <mxGeometry x="240" y="78" width="50" height="30" as="geometry" />
        </mxCell>
        <mxCell id="LiwgfZoK0_EGX5SwCAW9-10" value="innode索引表" style="text;html=1;align=center;verticalAlign=middle;resizable=0;points=[];autosize=1;strokeColor=none;fillColor=none;fontSize=15;" vertex="1" parent="1">
          <mxGeometry x="440" y="130" width="110" height="30" as="geometry" />
        </mxCell>
        <mxCell id="LiwgfZoK0_EGX5SwCAW9-13" value="文件系统核心" style="text;html=1;align=center;verticalAlign=middle;resizable=0;points=[];autosize=1;strokeColor=#82b366;fillColor=#d5e8d4;fontSize=15;fontStyle=1" vertex="1" parent="1">
          <mxGeometry x="295" y="30" width="110" height="30" as="geometry" />
        </mxCell>
        <mxCell id="LiwgfZoK0_EGX5SwCAW9-14" value="" style="ellipse;shape=doubleEllipse;whiteSpace=wrap;html=1;aspect=fixed;fillColor=#fff2cc;strokeColor=#d6b656;" vertex="1" parent="1">
          <mxGeometry x="560" y="180" width="40" height="40" as="geometry" />
        </mxCell>
        <mxCell id="LiwgfZoK0_EGX5SwCAW9-17" value="&lt;b&gt;innode索引表&lt;/b&gt;" style="text;html=1;align=center;verticalAlign=middle;resizable=0;points=[];autosize=1;strokeColor=none;fillColor=none;fontSize=15;" vertex="1" parent="1">
          <mxGeometry x="305" y="380" width="120" height="30" as="geometry" />
        </mxCell>
        <mxCell id="LiwgfZoK0_EGX5SwCAW9-18" value="" style="shape=table;startSize=0;container=1;collapsible=0;childLayout=tableLayout;fontSize=16;fillColor=#dae8fc;strokeColor=#6c8ebf;" vertex="1" parent="1">
          <mxGeometry x="240" y="240" width="225" height="110" as="geometry" />
        </mxCell>
        <mxCell id="LiwgfZoK0_EGX5SwCAW9-19" value="" style="shape=tableRow;horizontal=0;startSize=0;swimlaneHead=0;swimlaneBody=0;strokeColor=inherit;top=0;left=0;bottom=0;right=0;collapsible=0;dropTarget=0;fillColor=none;points=[[0,0.5],[1,0.5]];portConstraint=eastwest;fontSize=16;" vertex="1" parent="LiwgfZoK0_EGX5SwCAW9-18">
          <mxGeometry width="225" height="37" as="geometry" />
        </mxCell>
        <mxCell id="LiwgfZoK0_EGX5SwCAW9-20" value="inode1" style="shape=partialRectangle;html=1;whiteSpace=wrap;connectable=0;strokeColor=inherit;overflow=hidden;fillColor=none;top=0;left=0;bottom=0;right=0;pointerEvents=1;fontSize=16;" vertex="1" parent="LiwgfZoK0_EGX5SwCAW9-19">
          <mxGeometry width="75" height="37" as="geometry">
            <mxRectangle width="75" height="37" as="alternateBounds" />
          </mxGeometry>
        </mxCell>
        <mxCell id="LiwgfZoK0_EGX5SwCAW9-21" value="" style="shape=partialRectangle;html=1;whiteSpace=wrap;connectable=0;strokeColor=inherit;overflow=hidden;fillColor=none;top=0;left=0;bottom=0;right=0;pointerEvents=1;fontSize=16;" vertex="1" parent="LiwgfZoK0_EGX5SwCAW9-19">
          <mxGeometry x="75" width="75" height="37" as="geometry">
            <mxRectangle width="75" height="37" as="alternateBounds" />
          </mxGeometry>
        </mxCell>
        <mxCell id="LiwgfZoK0_EGX5SwCAW9-22" value="" style="shape=partialRectangle;html=1;whiteSpace=wrap;connectable=0;strokeColor=inherit;overflow=hidden;fillColor=none;top=0;left=0;bottom=0;right=0;pointerEvents=1;fontSize=16;" vertex="1" parent="LiwgfZoK0_EGX5SwCAW9-19">
          <mxGeometry x="150" width="75" height="37" as="geometry">
            <mxRectangle width="75" height="37" as="alternateBounds" />
          </mxGeometry>
        </mxCell>
        <mxCell id="LiwgfZoK0_EGX5SwCAW9-23" value="" style="shape=tableRow;horizontal=0;startSize=0;swimlaneHead=0;swimlaneBody=0;strokeColor=inherit;top=0;left=0;bottom=0;right=0;collapsible=0;dropTarget=0;fillColor=none;points=[[0,0.5],[1,0.5]];portConstraint=eastwest;fontSize=16;" vertex="1" parent="LiwgfZoK0_EGX5SwCAW9-18">
          <mxGeometry y="37" width="225" height="36" as="geometry" />
        </mxCell>
        <mxCell id="LiwgfZoK0_EGX5SwCAW9-24" value="inode2" style="shape=partialRectangle;html=1;whiteSpace=wrap;connectable=0;strokeColor=inherit;overflow=hidden;fillColor=none;top=0;left=0;bottom=0;right=0;pointerEvents=1;fontSize=16;" vertex="1" parent="LiwgfZoK0_EGX5SwCAW9-23">
          <mxGeometry width="75" height="36" as="geometry">
            <mxRectangle width="75" height="36" as="alternateBounds" />
          </mxGeometry>
        </mxCell>
        <mxCell id="LiwgfZoK0_EGX5SwCAW9-25" value="" style="shape=partialRectangle;html=1;whiteSpace=wrap;connectable=0;strokeColor=inherit;overflow=hidden;fillColor=none;top=0;left=0;bottom=0;right=0;pointerEvents=1;fontSize=16;" vertex="1" parent="LiwgfZoK0_EGX5SwCAW9-23">
          <mxGeometry x="75" width="75" height="36" as="geometry">
            <mxRectangle width="75" height="36" as="alternateBounds" />
          </mxGeometry>
        </mxCell>
        <mxCell id="LiwgfZoK0_EGX5SwCAW9-26" value="" style="shape=partialRectangle;html=1;whiteSpace=wrap;connectable=0;strokeColor=inherit;overflow=hidden;fillColor=none;top=0;left=0;bottom=0;right=0;pointerEvents=1;fontSize=16;" vertex="1" parent="LiwgfZoK0_EGX5SwCAW9-23">
          <mxGeometry x="150" width="75" height="36" as="geometry">
            <mxRectangle width="75" height="36" as="alternateBounds" />
          </mxGeometry>
        </mxCell>
        <mxCell id="LiwgfZoK0_EGX5SwCAW9-27" value="" style="shape=tableRow;horizontal=0;startSize=0;swimlaneHead=0;swimlaneBody=0;strokeColor=inherit;top=0;left=0;bottom=0;right=0;collapsible=0;dropTarget=0;fillColor=none;points=[[0,0.5],[1,0.5]];portConstraint=eastwest;fontSize=16;" vertex="1" parent="LiwgfZoK0_EGX5SwCAW9-18">
          <mxGeometry y="73" width="225" height="37" as="geometry" />
        </mxCell>
        <mxCell id="LiwgfZoK0_EGX5SwCAW9-28" value="inode3" style="shape=partialRectangle;html=1;whiteSpace=wrap;connectable=0;strokeColor=inherit;overflow=hidden;fillColor=none;top=0;left=0;bottom=0;right=0;pointerEvents=1;fontSize=16;" vertex="1" parent="LiwgfZoK0_EGX5SwCAW9-27">
          <mxGeometry width="75" height="37" as="geometry">
            <mxRectangle width="75" height="37" as="alternateBounds" />
          </mxGeometry>
        </mxCell>
        <mxCell id="LiwgfZoK0_EGX5SwCAW9-29" value="" style="shape=partialRectangle;html=1;whiteSpace=wrap;connectable=0;strokeColor=inherit;overflow=hidden;fillColor=none;top=0;left=0;bottom=0;right=0;pointerEvents=1;fontSize=16;" vertex="1" parent="LiwgfZoK0_EGX5SwCAW9-27">
          <mxGeometry x="75" width="75" height="37" as="geometry">
            <mxRectangle width="75" height="37" as="alternateBounds" />
          </mxGeometry>
        </mxCell>
        <mxCell id="LiwgfZoK0_EGX5SwCAW9-30" value="" style="shape=partialRectangle;html=1;whiteSpace=wrap;connectable=0;strokeColor=inherit;overflow=hidden;fillColor=none;top=0;left=0;bottom=0;right=0;pointerEvents=1;fontSize=16;" vertex="1" parent="LiwgfZoK0_EGX5SwCAW9-27">
          <mxGeometry x="150" width="75" height="37" as="geometry">
            <mxRectangle width="75" height="37" as="alternateBounds" />
          </mxGeometry>
        </mxCell>
        <mxCell id="LiwgfZoK0_EGX5SwCAW9-31" style="edgeStyle=orthogonalEdgeStyle;rounded=0;orthogonalLoop=1;jettySize=auto;html=1;exitX=0;exitY=0;exitDx=70;exitDy=80;exitPerimeter=0;entryX=0.532;entryY=0;entryDx=0;entryDy=0;entryPerimeter=0;" edge="1" parent="1" source="LiwgfZoK0_EGX5SwCAW9-1" target="LiwgfZoK0_EGX5SwCAW9-19">
          <mxGeometry relative="1" as="geometry" />
        </mxCell>
        <mxCell id="LiwgfZoK0_EGX5SwCAW9-32" value="&lt;b&gt;....&lt;/b&gt;" style="text;html=1;align=center;verticalAlign=middle;resizable=0;points=[];autosize=1;strokeColor=none;fillColor=none;" vertex="1" parent="1">
          <mxGeometry x="332.5" y="348" width="40" height="30" as="geometry" />
        </mxCell>
        <mxCell id="LiwgfZoK0_EGX5SwCAW9-33" style="rounded=0;orthogonalLoop=1;jettySize=auto;html=1;exitX=1;exitY=0.5;exitDx=0;exitDy=0;entryX=0;entryY=0.5;entryDx=0;entryDy=0;" edge="1" parent="1" source="LiwgfZoK0_EGX5SwCAW9-19" target="LiwgfZoK0_EGX5SwCAW9-14">
          <mxGeometry relative="1" as="geometry" />
        </mxCell>
        <mxCell id="LiwgfZoK0_EGX5SwCAW9-34" value="" style="ellipse;shape=doubleEllipse;whiteSpace=wrap;html=1;aspect=fixed;fillColor=#fff2cc;strokeColor=#d6b656;" vertex="1" parent="1">
          <mxGeometry x="570" y="277" width="40" height="40" as="geometry" />
        </mxCell>
        <mxCell id="LiwgfZoK0_EGX5SwCAW9-56" style="edgeStyle=orthogonalEdgeStyle;rounded=0;orthogonalLoop=1;jettySize=auto;html=1;exitX=0.5;exitY=1;exitDx=0;exitDy=0;entryX=0.5;entryY=0;entryDx=0;entryDy=0;curved=1;" edge="1" parent="1" source="LiwgfZoK0_EGX5SwCAW9-35" target="LiwgfZoK0_EGX5SwCAW9-48">
          <mxGeometry relative="1" as="geometry" />
        </mxCell>
        <mxCell id="LiwgfZoK0_EGX5SwCAW9-57" style="edgeStyle=orthogonalEdgeStyle;rounded=0;orthogonalLoop=1;jettySize=auto;html=1;exitX=0.5;exitY=1;exitDx=0;exitDy=0;entryX=0.5;entryY=0;entryDx=0;entryDy=0;curved=1;" edge="1" parent="1" source="LiwgfZoK0_EGX5SwCAW9-35" target="LiwgfZoK0_EGX5SwCAW9-52">
          <mxGeometry relative="1" as="geometry" />
        </mxCell>
        <mxCell id="LiwgfZoK0_EGX5SwCAW9-35" value="" style="ellipse;shape=doubleEllipse;whiteSpace=wrap;html=1;aspect=fixed;fillColor=#1ba1e2;strokeColor=#006EAF;fontColor=#ffffff;" vertex="1" parent="1">
          <mxGeometry x="570" y="390" width="40" height="40" as="geometry" />
        </mxCell>
        <mxCell id="LiwgfZoK0_EGX5SwCAW9-36" style="rounded=0;orthogonalLoop=1;jettySize=auto;html=1;exitX=1;exitY=0.5;exitDx=0;exitDy=0;" edge="1" parent="1" source="LiwgfZoK0_EGX5SwCAW9-23" target="LiwgfZoK0_EGX5SwCAW9-34">
          <mxGeometry relative="1" as="geometry" />
        </mxCell>
        <mxCell id="LiwgfZoK0_EGX5SwCAW9-37" style="rounded=0;orthogonalLoop=1;jettySize=auto;html=1;exitX=1;exitY=0.5;exitDx=0;exitDy=0;entryX=0;entryY=0.5;entryDx=0;entryDy=0;" edge="1" parent="1" source="LiwgfZoK0_EGX5SwCAW9-27" target="LiwgfZoK0_EGX5SwCAW9-35">
          <mxGeometry relative="1" as="geometry" />
        </mxCell>
        <mxCell id="LiwgfZoK0_EGX5SwCAW9-39" value="&lt;font style=&quot;font-size: 15px;&quot;&gt;&lt;b&gt;innode&lt;/b&gt;&lt;/font&gt;" style="text;html=1;align=center;verticalAlign=middle;resizable=0;points=[];autosize=1;strokeColor=none;fillColor=none;" vertex="1" parent="1">
          <mxGeometry x="545" y="220" width="70" height="30" as="geometry" />
        </mxCell>
        <mxCell id="LiwgfZoK0_EGX5SwCAW9-40" value="&lt;font style=&quot;font-size: 15px;&quot;&gt;&lt;b&gt;innode&lt;/b&gt;&lt;/font&gt;" style="text;html=1;align=center;verticalAlign=middle;resizable=0;points=[];autosize=1;strokeColor=none;fillColor=none;" vertex="1" parent="1">
          <mxGeometry x="555" y="318" width="70" height="30" as="geometry" />
        </mxCell>
        <mxCell id="LiwgfZoK0_EGX5SwCAW9-41" value="&lt;font style=&quot;font-size: 15px;&quot;&gt;&lt;b&gt;innode&lt;/b&gt;&lt;/font&gt;" style="text;html=1;align=center;verticalAlign=middle;resizable=0;points=[];autosize=1;strokeColor=none;fillColor=none;" vertex="1" parent="1">
          <mxGeometry x="555" y="360" width="70" height="30" as="geometry" />
        </mxCell>
        <mxCell id="LiwgfZoK0_EGX5SwCAW9-42" value="" style="shape=curlyBracket;whiteSpace=wrap;html=1;rounded=1;labelPosition=left;verticalLabelPosition=middle;align=right;verticalAlign=middle;" vertex="1" parent="1">
          <mxGeometry x="610" y="140" width="20" height="120" as="geometry" />
        </mxCell>
        <mxCell id="LiwgfZoK0_EGX5SwCAW9-43" value="文件名" style="text;html=1;align=center;verticalAlign=middle;resizable=0;points=[];autosize=1;strokeColor=none;fillColor=none;fontSize=15;" vertex="1" parent="1">
          <mxGeometry x="630" y="130" width="70" height="30" as="geometry" />
        </mxCell>
        <mxCell id="LiwgfZoK0_EGX5SwCAW9-44" value="权限" style="text;html=1;align=center;verticalAlign=middle;resizable=0;points=[];autosize=1;strokeColor=none;fillColor=none;fontSize=15;" vertex="1" parent="1">
          <mxGeometry x="640" y="170" width="50" height="30" as="geometry" />
        </mxCell>
        <mxCell id="LiwgfZoK0_EGX5SwCAW9-45" value="所有者、创建修改时间等" style="text;html=1;align=center;verticalAlign=middle;resizable=0;points=[];autosize=1;strokeColor=none;fillColor=none;fontSize=15;" vertex="1" parent="1">
          <mxGeometry x="630" y="220" width="190" height="30" as="geometry" />
        </mxCell>
        <mxCell id="LiwgfZoK0_EGX5SwCAW9-47" value="" style="shape=ext;double=1;whiteSpace=wrap;html=1;aspect=fixed;fillColor=#1ba1e2;strokeColor=#006EAF;fontColor=#ffffff;" vertex="1" parent="1">
          <mxGeometry x="465" y="490" width="40" height="40" as="geometry" />
        </mxCell>
        <mxCell id="LiwgfZoK0_EGX5SwCAW9-48" value="" style="shape=ext;double=1;whiteSpace=wrap;html=1;aspect=fixed;fillColor=#1ba1e2;strokeColor=#006EAF;fontColor=#ffffff;" vertex="1" parent="1">
          <mxGeometry x="500" y="490" width="40" height="40" as="geometry" />
        </mxCell>
        <mxCell id="LiwgfZoK0_EGX5SwCAW9-49" value="" style="shape=ext;double=1;whiteSpace=wrap;html=1;aspect=fixed;fillColor=#d5e8d4;strokeColor=#82b366;" vertex="1" parent="1">
          <mxGeometry x="540" y="490" width="40" height="40" as="geometry" />
        </mxCell>
        <mxCell id="LiwgfZoK0_EGX5SwCAW9-51" value="" style="shape=ext;double=1;whiteSpace=wrap;html=1;aspect=fixed;fillColor=#e1d5e7;strokeColor=#9673a6;" vertex="1" parent="1">
          <mxGeometry x="615" y="490" width="40" height="40" as="geometry" />
        </mxCell>
        <mxCell id="LiwgfZoK0_EGX5SwCAW9-52" value="" style="shape=ext;double=1;whiteSpace=wrap;html=1;aspect=fixed;fillColor=#1ba1e2;fontColor=#ffffff;strokeColor=#006EAF;" vertex="1" parent="1">
          <mxGeometry x="650" y="490" width="40" height="40" as="geometry" />
        </mxCell>
        <mxCell id="LiwgfZoK0_EGX5SwCAW9-53" value="" style="shape=ext;double=1;whiteSpace=wrap;html=1;aspect=fixed;fillColor=#1ba1e2;strokeColor=#006EAF;fontColor=#ffffff;" vertex="1" parent="1">
          <mxGeometry x="690" y="490" width="40" height="40" as="geometry" />
        </mxCell>
        <mxCell id="LiwgfZoK0_EGX5SwCAW9-54" value="数据块组" style="text;html=1;align=center;verticalAlign=middle;resizable=0;points=[];autosize=1;strokeColor=none;fillColor=none;fontSize=15;" vertex="1" parent="1">
          <mxGeometry x="480" y="535" width="80" height="30" as="geometry" />
        </mxCell>
        <mxCell id="LiwgfZoK0_EGX5SwCAW9-55" value="数据块组" style="text;html=1;align=center;verticalAlign=middle;resizable=0;points=[];autosize=1;strokeColor=none;fillColor=none;fontSize=15;" vertex="1" parent="1">
          <mxGeometry x="645" y="535" width="80" height="30" as="geometry" />
        </mxCell>
        <mxCell id="LiwgfZoK0_EGX5SwCAW9-58" value="" style="shape=ext;double=1;whiteSpace=wrap;html=1;aspect=fixed;fillColor=#ffe6cc;strokeColor=#d79b00;" vertex="1" parent="1">
          <mxGeometry x="730" y="490" width="40" height="40" as="geometry" />
        </mxCell>
        <mxCell id="LiwgfZoK0_EGX5SwCAW9-60" value="" style="shape=ext;double=1;whiteSpace=wrap;html=1;aspect=fixed;fillColor=#e1d5e7;strokeColor=#9673a6;" vertex="1" parent="1">
          <mxGeometry x="770" y="490" width="40" height="40" as="geometry" />
        </mxCell>
      </root>
    </mxGraphModel>
  </diagram>
</mxfile>
